<svg xmlns="http://www.w3.org/2000/svg" width="20" height="17.794" viewBox="0 0 20 17.794">
  <path id="heart_1_" data-name="heart (1)" d="M18.413,1.741a5.378,5.378,0,0,0-4-1.741A5.031,5.031,0,0,0,11.27,1.085,6.429,6.429,0,0,0,10,2.411,6.426,6.426,0,0,0,8.729,1.085,5.031,5.031,0,0,0,5.587,0a5.378,5.378,0,0,0-4,1.741A6.252,6.252,0,0,0,0,6.011a7.444,7.444,0,0,0,1.984,4.873,42.3,42.3,0,0,0,4.966,4.661c.688.586,1.468,1.251,2.278,1.959a1.174,1.174,0,0,0,1.546,0c.81-.708,1.59-1.373,2.278-1.96a42.278,42.278,0,0,0,4.965-4.66A7.443,7.443,0,0,0,20,6.01,6.251,6.251,0,0,0,18.413,1.741Zm0,0" fill="#fff"/>
</svg>
