<svg xmlns="http://www.w3.org/2000/svg" width="141" height="161.348" viewBox="0 0 141 161.348"><g transform="translate(-32.286)"><path d="M176.058,75.637c0,5.8-7.44,10.537-8.869,15.883-1.478,5.531,2.551,13.349-.251,18.192-2.842,4.913-11.654,5.314-15.64,9.3s-4.388,12.8-9.3,15.64c-4.843,2.8-12.66-1.227-18.192.251-5.346,1.429-10.087,8.869-15.883,8.869s-10.537-7.44-15.883-8.869c-5.531-1.478-13.349,2.551-18.192-.251-4.913-2.842-5.314-11.654-9.3-15.64s-12.8-4.388-15.64-9.3c-2.8-4.843,1.227-12.66-.251-18.192-1.429-5.346-8.869-10.087-8.869-15.883s7.44-10.537,8.869-15.883c1.478-5.531-2.551-13.349.251-18.192,2.842-4.913,11.654-5.314,15.64-9.3s4.388-12.8,9.3-15.64c4.843-2.8,12.66,1.227,18.192-.251C97.384,14.94,102.125,7.5,107.922,7.5s10.537,7.44,15.883,8.869c5.531,1.478,13.349-2.551,18.192.251,4.913,2.842,5.314,11.654,9.3,15.64s12.8,4.388,15.64,9.3c2.8,4.843-1.227,12.66.251,18.192C168.618,65.1,176.058,69.84,176.058,75.637Z" transform="translate(-5.136 -5.136)" fill="#fff0af"/><path d="M290.659,148.254c1.429-5.346,8.869-10.087,8.869-15.883s-7.44-10.538-8.869-15.883c-1.478-5.531,2.551-13.349-.251-18.192-2.486-4.3-9.541-5.143-13.937-7.956a7.223,7.223,0,0,1,1.332,1.653c2.8,4.843-1.227,12.66.251,18.192,1.429,5.346,8.869,10.087,8.869,15.883s-7.44,10.537-8.869,15.883c-1.478,5.531,2.551,13.349-.251,18.192-2.842,4.913-11.654,5.314-15.64,9.3s-4.388,12.8-9.3,15.64c-4.843,2.8-12.66-1.227-18.192.251-4.947,1.322-9.376,7.791-14.6,8.75,3.638,2.686,7.216,6.422,11.323,6.422,5.8,0,10.538-7.44,15.883-8.869,5.531-1.478,13.349,2.551,18.192-.251,4.913-2.842,5.314-11.654,9.3-15.64s12.8-4.388,15.64-9.3c2.8-4.843-1.227-12.661.251-18.192Z" transform="translate(-128.606 -61.871)" fill="#ffe07d"/><circle cx="44.886" cy="44.886" r="44.886" transform="translate(57.9 25.614)" fill="#ffe07d"/><path d="M212.766,87.836a44.9,44.9,0,0,1-39.608,79.337,44.892,44.892,0,1,0,39.608-79.337Z" transform="translate(-96.478 -60.156)" fill="#ffd064"/><path d="M356.818,221.868q-.1.754-.217,1.5A1.407,1.407,0,0,0,356.818,221.868Z" transform="translate(-222.112 -151.95)" fill="#ffe07d"/><path d="M88.482,375.491c-4.913-2.842-5.314-11.654-9.3-15.64a8.855,8.855,0,0,0-.783-.693L61.263,388.836a.794.794,0,0,0,.713,1.19l16.592-.548a.793.793,0,0,1,.726.419l7.822,14.643a.794.794,0,0,0,1.387.023l16.788-29.077c-5.392-.615-12.357,2.581-16.809.005Z" transform="translate(-19.772 -245.975)" fill="#bed8fb"/><path d="M337.682,359.158a8.9,8.9,0,0,0-.783.693c-3.987,3.987-4.388,12.8-9.3,15.64-4.452,2.576-11.417-.621-16.809-.006l16.788,29.077a.794.794,0,0,0,1.387-.023l7.822-14.643a.793.793,0,0,1,.726-.419l16.592.548a.794.794,0,0,0,.713-1.19Z" transform="translate(-190.737 -245.975)" fill="#bed8fb"/><path d="M116.893,375.492c-4.913-2.842-5.314-11.654-9.3-15.64a8.848,8.848,0,0,0-.783-.693l-4.17,7.223c.515,1,1.091,2.473,1.515,3.56,1.637,4.192,3.674,9.408,8.793,12.37a16.426,16.426,0,0,0,8.448,2.078,44,44,0,0,0,6.537-.638c.369-.055.734-.11,1.091-.162l4.678-8.1C128.31,374.872,121.345,378.068,116.893,375.492Z" transform="translate(-48.182 -245.976)" fill="#9dc6fb"/><path d="M341.852,366.381l-4.17-7.223a8.9,8.9,0,0,0-.783.693c-3.987,3.987-4.388,12.8-9.3,15.64-4.452,2.576-11.417-.621-16.809-.006l4.678,8.1c.356.051.721.106,1.09.162a44.012,44.012,0,0,0,6.538.638,16.427,16.427,0,0,0,8.448-2.078c5.119-2.962,7.156-8.179,8.793-12.37.425-1.088,1-2.563,1.515-3.561Z" transform="translate(-190.737 -245.975)" fill="#9dc6fb"/><path d="M192.842,124.991l5.718,17.6a1.962,1.962,0,0,0,1.865,1.355h18.5a1.961,1.961,0,0,1,1.153,3.548L205.113,158.37a1.962,1.962,0,0,0-.713,2.193l5.718,17.6a1.962,1.962,0,0,1-3.018,2.193l-14.971-10.877a1.961,1.961,0,0,0-2.306,0l-14.971,10.877a1.961,1.961,0,0,1-3.018-2.193l5.718-17.6a1.962,1.962,0,0,0-.713-2.193L161.87,147.493a1.961,1.961,0,0,1,1.153-3.548h18.5a1.961,1.961,0,0,0,1.865-1.355l5.718-17.6a1.962,1.962,0,0,1,3.731,0Z" transform="translate(-88.191 -84.674)" fill="#fff0af"/><path d="M168.123,81.023c2.42-3.02,5.163-6.444,5.163-10.523s-2.743-7.5-5.163-10.523c-1.69-2.109-3.287-4.1-3.786-5.971-.534-2-.143-4.6.271-7.36.592-3.939,1.2-8.012-.76-11.4-1.994-3.447-5.862-4.957-9.6-6.418-2.567-1-4.991-1.949-6.412-3.37s-2.368-3.846-3.37-6.412c-1.461-3.741-2.971-7.609-6.418-9.6-3.394-1.963-7.466-1.352-11.405-.76-2.758.414-5.362.806-7.36.271-1.869-.5-3.862-2.1-5.971-3.786C110.288,2.743,106.865,0,102.786,0s-7.5,2.743-10.523,5.163c-2.109,1.69-4.1,3.287-5.971,3.786-2,.534-4.6.143-7.36-.271-3.939-.592-8.012-1.2-11.405.76-3.447,1.994-4.957,5.862-6.418,9.6-1,2.567-1.949,4.991-3.37,6.412s-3.846,2.368-6.412,3.37c-3.741,1.461-7.609,2.971-9.6,6.418-1.963,3.394-1.352,7.466-.76,11.4.414,2.757.805,5.362.271,7.36-.5,1.869-2.1,3.862-3.786,5.971C35.029,63,32.286,66.421,32.286,70.5s2.743,7.5,5.163,10.523c1.69,2.109,3.287,4.1,3.786,5.971.534,2,.143,4.6-.271,7.36-.592,3.939-1.2,8.011.76,11.4,1.994,3.447,5.862,4.957,9.6,6.418a41.663,41.663,0,0,1,4.126,1.777L39.445,141.679a3.157,3.157,0,0,0,2.838,4.734L57.9,145.9l7.361,13.781a3.157,3.157,0,0,0,5.519.092l15.929-27.591a21.457,21.457,0,0,1,5.555,3.657c3.02,2.421,6.444,5.163,10.523,5.163s7.5-2.743,10.523-5.163a21.461,21.461,0,0,1,5.555-3.657l3.667,6.351a2.363,2.363,0,0,0,4.094-2.364l-2.418-4.187c4.642.564,9.735,1.957,13.839-.417,3.447-1.994,4.957-5.862,6.418-9.6a34.328,34.328,0,0,1,2.1-4.711L160.619,141.6l-13.769-.454a3.131,3.131,0,0,0-2.888,1.668l-6.49,12.15-5-8.668a2.363,2.363,0,0,0-4.094,2.363l6.417,11.115a3.157,3.157,0,0,0,5.519-.091l7.362-13.781,15.615.516a3.157,3.157,0,0,0,2.838-4.734l-16.008-27.726a41.769,41.769,0,0,1,4.126-1.776c3.741-1.461,7.609-2.971,9.6-6.418,1.963-3.394,1.352-7.466.76-11.4-.414-2.757-.805-5.362-.271-7.36.5-1.87,2.1-3.862,3.787-5.972ZM68.1,154.959l-6.49-12.15a3.128,3.128,0,0,0-2.889-1.668l-13.768.454,14.057-24.347a34.363,34.363,0,0,1,2.1,4.711c1.461,3.741,2.971,7.609,6.418,9.6,4.105,2.375,9.2.981,13.839.417ZM159.77,85.773c-.788,2.948-.3,6.168.164,9.283.492,3.278.958,6.375-.177,8.336-1.165,2.013-4.111,3.164-7.231,4.382-7.872,3.075-9.381,4.568-12.466,12.466-1.218,3.119-2.369,6.066-4.382,7.231-1.961,1.135-5.057.669-8.335.177-8.579-1.289-10.586-.631-16.989,4.5-2.647,2.121-5.148,4.125-7.567,4.125s-4.92-2-7.567-4.125c-6.426-5.149-8.438-5.786-16.989-4.5-3.278.492-6.375.958-8.336-.177-2.013-1.165-3.164-4.111-4.382-7.23-3.075-7.875-4.562-9.38-12.466-12.466-3.12-1.218-6.066-2.369-7.231-4.382-1.134-1.961-.669-5.057-.177-8.335.468-3.114.952-6.335.164-9.283-.756-2.83-2.743-5.309-4.664-7.706-2.121-2.647-4.125-5.148-4.125-7.567s2-4.92,4.125-7.567c1.921-2.4,3.908-4.877,4.664-7.706.788-2.948.3-6.169-.164-9.283-.492-3.278-.958-6.375.177-8.335,1.165-2.013,4.111-3.164,7.231-4.382,2.907-1.135,5.914-2.309,8.035-4.431s3.3-5.128,4.431-8.035c1.218-3.119,2.369-6.066,4.382-7.23,1.961-1.135,5.057-.67,8.336-.177,3.114.468,6.334.952,9.283.164,2.829-.756,5.308-2.743,7.706-4.664,2.647-2.122,5.148-4.126,7.567-4.126s4.92,2,7.567,4.125c2.4,1.921,4.877,3.907,7.706,4.664,2.949.788,6.169.3,9.283-.164,3.278-.492,6.375-.957,8.336.177,2.013,1.165,3.164,4.112,4.382,7.231,1.135,2.907,2.31,5.914,4.431,8.035s5.128,3.3,8.035,4.431c3.12,1.218,6.066,2.369,7.231,4.382,1.134,1.961.669,5.058.177,8.336-.468,3.114-.952,6.334-.164,9.283.756,2.829,2.743,5.308,4.664,7.706,2.121,2.647,4.125,5.148,4.125,7.567s-2,4.92-4.125,7.567c-1.921,2.4-3.908,4.877-4.664,7.706Z"/><path d="M188.383,100.478H182.32a47.583,47.583,0,0,0-.6-5.541,2.364,2.364,0,0,0-4.661.786,42.527,42.527,0,1,1-41.929-35.4,42.442,42.442,0,0,1,21.261,5.7c.033.019.067.038.1.055a42.529,42.529,0,0,1,15.366,15.322,2.334,2.334,0,0,0,.211.365,42.763,42.763,0,0,1,2.052,4.089,2.363,2.363,0,1,0,4.332-1.891q-.593-1.359-1.265-2.668l5.242-3.027a2.363,2.363,0,1,0-2.363-4.094l-5.243,3.027a47.247,47.247,0,0,0-14.051-14.042L163.8,57.9a2.363,2.363,0,1,0-4.094-2.364l-3.03,5.249a47.192,47.192,0,0,0-19.186-5.139V49.586a2.364,2.364,0,1,0-4.727,0V55.65A46.912,46.912,0,0,0,113.583,60.8l-3.035-5.255a2.363,2.363,0,1,0-4.094,2.363l3.039,5.263a47.631,47.631,0,0,0-14.04,14.04l-5.263-3.039a2.363,2.363,0,1,0-2.363,4.094L93.083,81.3a46.912,46.912,0,0,0-5.146,19.182H81.875a2.364,2.364,0,1,0,0,4.727h6.063a46.912,46.912,0,0,0,5.146,19.182l-5.256,3.034a2.363,2.363,0,0,0,2.364,4.094l5.263-3.038a47.632,47.632,0,0,0,14.04,14.04l-3.039,5.263a2.363,2.363,0,0,0,4.094,2.364l3.034-5.256a46.912,46.912,0,0,0,19.182,5.146V156.1a2.364,2.364,0,0,0,4.727,0v-6.063a46.912,46.912,0,0,0,19.182-5.146l3.035,5.255a2.363,2.363,0,1,0,4.094-2.364l-3.039-5.263a47.631,47.631,0,0,0,14.04-14.04l5.263,3.038a2.363,2.363,0,1,0,2.363-4.094l-5.256-3.034A46.912,46.912,0,0,0,182.32,105.2h6.063a2.363,2.363,0,1,0,0-4.727Z" transform="translate(-32.343 -32.341)"/><path d="M217.914,139.434a4.314,4.314,0,0,0-4.113-2.988H195.588l-5.628-17.322a4.325,4.325,0,0,0-8.226,0l-5.628,17.321h-4.655a2.364,2.364,0,0,0,0,4.727H176.4a4.314,4.314,0,0,0,4.113-2.988l5.336-16.422,5.336,16.422a4.314,4.314,0,0,0,4.113,2.988h17.267l-13.969,10.149a4.314,4.314,0,0,0-1.571,4.835l5.336,16.422-13.97-10.149a4.313,4.313,0,0,0-5.084,0l-13.97,10.149,5.336-16.422a4.315,4.315,0,0,0-1.571-4.836l-13.969-10.149h1.29a2.364,2.364,0,1,0,0-4.727h-2.528a4.325,4.325,0,0,0-2.542,7.824l14.734,10.705-5.628,17.321a4.325,4.325,0,0,0,6.655,4.835l14.734-10.7,14.734,10.705a4.325,4.325,0,0,0,6.655-4.835l-5.628-17.321,14.734-10.705A4.314,4.314,0,0,0,217.914,139.434Z" transform="translate(-83.061 -79.538)"/></g></svg>