<svg xmlns="http://www.w3.org/2000/svg" width="45.474" height="36" viewBox="0 0 45.474 36">
  <g id="right-arrow" transform="translate(0 -53.333)">
    <path id="Tracé_12178" data-name="Tracé 12178" d="M45.4,71.684a.947.947,0,0,0-.207-1.033L28.142,53.6a.947.947,0,0,0-1.34,1.34L42.239,70.375H.947a.947.947,0,0,0,0,1.895H42.239L26.8,87.7a.947.947,0,0,0,1.316,1.363l.023-.023L45.2,71.991A.95.95,0,0,0,45.4,71.684Z" transform="translate(0 0)" fill="#2196f3"/>
    <path id="Tracé_12179" data-name="Tracé 12179" d="M299.6,89.342a.947.947,0,0,1-.671-1.618l16.384-16.382L298.925,54.961a.947.947,0,0,1,1.34-1.34l17.053,17.053a.947.947,0,0,1,0,1.34L300.265,89.066A.947.947,0,0,1,299.6,89.342Z" transform="translate(-272.122 -0.02)"/>
    <path id="Tracé_12180" data-name="Tracé 12180" d="M44.526,247.108H.947a.947.947,0,1,1,0-1.895H44.526a.947.947,0,1,1,0,1.895Z" transform="translate(0 -174.838)"/>
  </g>
</svg>
