<svg xmlns="http://www.w3.org/2000/svg" width="31.582" height="39.831" viewBox="0 0 31.582 39.831">
  <g id="shopping-bag" transform="translate(-53.02)">
    <g id="Groupe_34" data-name="Groupe 34" transform="translate(53.02)">
      <g id="Groupe_33" data-name="Groupe 33" transform="translate(0)">
        <path id="Tracé_12106" data-name="Tracé 12106" d="M84.583,32.846,82.8,10.432a2.8,2.8,0,0,0-2.78-2.575H76.51V7.7a7.7,7.7,0,0,0-15.4,0v.158H57.6a2.8,2.8,0,0,0-2.78,2.572l-1.779,22.42a6.486,6.486,0,0,0,6.467,6.982H78.116a6.486,6.486,0,0,0,6.466-6.985ZM63.445,7.7a5.366,5.366,0,0,1,10.732,0v.158H63.445ZM81.163,36.167A4.11,4.11,0,0,1,78.116,37.5H59.506a4.152,4.152,0,0,1-4.14-4.467l1.779-22.42a.457.457,0,0,1,.454-.421h3.513v2.873a1.167,1.167,0,1,0,2.333,0V10.19H74.177v2.873a1.167,1.167,0,1,0,2.333,0V10.19h3.513a.458.458,0,0,1,.454.424l1.779,22.414A4.11,4.11,0,0,1,81.163,36.167Z" transform="translate(-53.02)" fill="#ffce00"/>
      </g>
    </g>
    <g id="Groupe_36" data-name="Groupe 36" transform="translate(63.214 19.44)">
      <g id="Groupe_35" data-name="Groupe 35" transform="translate(0)">
        <path id="Tracé_12107" data-name="Tracé 12107" d="M194.9,250.235a1.166,1.166,0,0,0-1.65,0l-5.209,5.209-2-2a1.167,1.167,0,0,0-1.65,1.65l2.828,2.828a1.166,1.166,0,0,0,1.65,0l6.034-6.034A1.167,1.167,0,0,0,194.9,250.235Z" transform="translate(-184.052 -249.893)" fill="#ffce00"/>
      </g>
    </g>
  </g>
</svg>
