<svg xmlns="http://www.w3.org/2000/svg" width="30.965" height="38.625" viewBox="0 0 30.965 38.625">
  <g id="wishlist" transform="translate(-0.5)">
    <path id="Tracé_12098" data-name="Tracé 12098" d="M28.07,0H3.895A3.4,3.4,0,0,0,.5,3.395V35.23a3.4,3.4,0,0,0,3.395,3.395H28.071a3.4,3.4,0,0,0,3.395-3.395V3.395A3.4,3.4,0,0,0,28.07,0ZM29.2,35.23a1.133,1.133,0,0,1-1.132,1.132H3.895A1.133,1.133,0,0,1,2.763,35.23V3.395A1.133,1.133,0,0,1,3.895,2.263H28.071A1.133,1.133,0,0,1,29.2,3.395V35.23Zm0,0" fill="#ff2f56"/>
    <path id="Tracé_12099" data-name="Tracé 12099" d="M144.587,91.251a1.132,1.132,0,0,0,.824-.356l3.123-3.32.027-.03a3.3,3.3,0,0,0,1.015-2.285,3.063,3.063,0,0,0-5-2.348,3.057,3.057,0,0,0-4.982,2.379,3.486,3.486,0,0,0,1,2.237c.016.019.032.037.049.055l3.12,3.314A1.132,1.132,0,0,0,144.587,91.251Zm-1.928-6.759a.792.792,0,0,1,.72.454,1.347,1.347,0,0,0,1.209.763h0a1.326,1.326,0,0,0,1.2-.765.8.8,0,0,1,.776-.455.809.809,0,0,1,.743.79c0,.172-.071.358-.435.752l-.012.013-2.28,2.424-2.27-2.411a1.7,1.7,0,0,1-.455-.768A.8.8,0,0,1,142.658,84.492Zm0,0" transform="translate(-128.604 -76.021)" fill="#ff2f56"/>
    <path id="Tracé_12100" data-name="Tracé 12100" d="M171.949,244h-10.4a1.132,1.132,0,1,0,0,2.263h10.4a1.132,1.132,0,1,0,0-2.263Zm0,0" transform="translate(-147.854 -225.593)" fill="#ff2f56"/>
    <path id="Tracé_12101" data-name="Tracé 12101" d="M91.89,236.384a1.845,1.845,0,1,1-1.845-1.845A1.845,1.845,0,0,1,91.89,236.384Zm0,0" transform="translate(-81.083 -216.846)" fill="#ff2f56"/>
    <path id="Tracé_12102" data-name="Tracé 12102" d="M171.949,320h-10.4a1.132,1.132,0,0,0,0,2.263h10.4a1.132,1.132,0,1,0,0-2.263Zm0,0" transform="translate(-147.854 -295.86)" fill="#ff2f56"/>
    <path id="Tracé_12103" data-name="Tracé 12103" d="M91.89,312.384a1.845,1.845,0,1,1-1.845-1.845A1.845,1.845,0,0,1,91.89,312.384Zm0,0" transform="translate(-81.083 -287.112)" fill="#ff2f56"/>
    <path id="Tracé_12104" data-name="Tracé 12104" d="M171.949,396h-10.4a1.132,1.132,0,0,0,0,2.263h10.4a1.132,1.132,0,0,0,0-2.263Zm0,0" transform="translate(-147.854 -366.126)" fill="#ff2f56"/>
    <path id="Tracé_12105" data-name="Tracé 12105" d="M91.89,388.384a1.845,1.845,0,1,1-1.845-1.845A1.845,1.845,0,0,1,91.89,388.384Zm0,0" transform="translate(-81.083 -357.379)" fill="#ff2f56"/>
  </g>
</svg>
