<svg xmlns="http://www.w3.org/2000/svg" width="965.589" height="774.403" viewBox="0 0 965.589 774.403"><g transform="translate(0 79.163)"><rect width="97.349" height="85.911" rx="5.42" transform="translate(34.168 372.952)" fill="#1a1a1a"/><rect width="426.707" height="296.123" rx="7.57" transform="translate(110.26 1.522)" fill="#fff"/><path d="M7.57,0H338.479a7.57,7.57,0,0,1,7.57,7.57V270.929a7.57,7.57,0,0,1-7.57,7.57H7.57A7.57,7.57,0,0,1,0,270.929V7.57A7.57,7.57,0,0,1,7.57,0Z" transform="translate(619.54 282.475)" fill="#f7c042"/><path d="M383.025,138.232s-3.093-1.325-29.111-14.728-39.274-17.379-49.092-18.36a75.7,75.7,0,0,0-31.026,4.909,274.473,274.473,0,0,1-45.165,14.482,65.882,65.882,0,0,1-30.486-5.6c-5.6-2.307-47.079-27.639-47.079-27.639s-9.18,100.933-12.666,133.579H346.5a36.77,36.77,0,0,0,36.672-36.672V139.115Z" transform="translate(541.032 356.909)" fill="#1a1a1a"/><path d="M247.66,169.563a297.2,297.2,0,0,0-55.523,16.888c-22.877,10.506-43.5,22.631-43.5,22.631s21.65-54.443,25.822-65.734a173.248,173.248,0,0,1,12.42-24.546s-10.653-13.7-10.849-20.422a93.275,93.275,0,0,1-36.426-13.206s-10.653-4.467-12.567-8.787c0,0-21.748-16.151-20.226-30.486a435.053,435.053,0,0,0-33.382,72.558c-18.066,48.11-28.866,67.7-20.324,120.815a84.634,84.634,0,0,0,63.574,69.612c9.818,2.258,26.559,7.069,43.79,3.78a172.756,172.756,0,0,0,33.284-10.309l-4.909,38.734L170.193,513.255H417.666L407.847,416.4s9.818,25.135,26.068,34.708a55.523,55.523,0,0,0,55.13.785A58.91,58.91,0,0,0,518.5,408.051a183.163,183.163,0,0,0-4.909-61.561c-6.038-26.853-25.184-108.837-25.184-108.837l-56.8-27.2s-19.931-29.946-50.467-36.917l-30.584-6.971Z" transform="translate(195.984 179.432)" fill="#f7c042"/><path d="M231,165.84a56.406,56.406,0,0,0-6.775-32.253c-8.787-13.7-15.464-21.11-17.722-25.086s-1.276-21.7-2.847-28.424-3.633-17.035-15.611-15.022-15.268,17.673-13.4,27.884,9.18,34.07,8.787,37.359-19.637,15.268-29.455,19.1-29.455,10.7-34.364,18.459-3.338,18.066,6.431,19c0,0-12.568,6.578-9.818,15.857a10.358,10.358,0,0,0,11.193,8.1A13.107,13.107,0,0,0,139.2,226.174c13.893,1.718,40.354-7.806,49.485-12.764s25.184-13.255,32.106-23.417A64.31,64.31,0,0,0,231,165.84Z" transform="translate(452.802 253.307)" fill="#fff"/><path d="M108.924,84.469S88.011,80.443,87.373,98.8s18.115,18.164,23.662,14.384c0,0-.344,42.906,42.17,42.219S196.9,119.275,196.9,119.275v-5.351s19.244,5.989,22.631-6.627S220.8,89.575,215.9,86.875s-17.428-1.915-17.428-1.915V80.591a114.286,114.286,0,0,0-37.653-25.037,152.182,152.182,0,0,0-34.806-10.6S116.73,68.563,110.3,73.62Z" transform="translate(341.495 175.718)" fill="#fff"/><path d="M112.03,64.04V76.018L90.38,98.65,105.549,182.4l36.966-53.265L179.629,182.4l14.826-85.469L173.1,75.429l.147-10.309Z" transform="translate(353.313 250.345)" fill="#fff"/><path d="M224.538,100.405A30.584,30.584,0,1,1,193.954,69.87a30.584,30.584,0,0,1,30.584,30.535Z" transform="translate(638.645 273.135)" fill="#fff"/><rect width="463.428" height="142.956" rx="7.57" transform="translate(71.085 531.617)" fill="#fff"/><path d="M72.152,142.406A24.546,24.546,0,1,1,47.606,117.86,24.546,24.546,0,0,1,72.152,142.406Z" transform="translate(90.146 460.738)" fill="#1a1a1a"/><path d="M406.8.31H64.777C41.428.366,22.514,19.814,22.46,43.822V73.149H449.118V43.822C449.037,19.825,430.138.393,406.8.31Z" transform="translate(87.801 1.212)" fill="#1a1a1a"/><path d="M93.093,107.861A238.977,238.977,0,0,1,90,82.039c.245-5.744,4.467-21.65,9.082-23.957a25.823,25.823,0,0,1,6.235-2.6,41.924,41.924,0,0,1,35.15-17.133c24.546,0,42.563,9.818,49.877,22.582s5.842,32.941,5.793,38.832a32.94,32.94,0,0,1-1.375,9.818l-6.431.393-.491-3.584s-20.717-20.275-43.692-27.541a273.337,273.337,0,0,0-28.277-8.1S108.36,92.2,99.818,99.417v10.555Z" transform="translate(351.828 149.823)" fill="#1a1a1a"/><path d="M129.058,121.373a65.193,65.193,0,0,1,21.06,17.575c6.431,9.818,8.051,33.137-4.909,34.021s-18.557-13.991-20.177-18.262a16.3,16.3,0,0,0-12.077-12.96c-9.818-3.387-32.155-6.578-36.23-13.206s-10.7-10.555-10.408-32.106c0,0-6.922-22.288,3.338-31.762s22.042-9.131,43.3-8.493,36.033-9.818,45.656-13.942,24.546-12.028,32.941-7.56,2.356,16.053,2.356,16.053a17.133,17.133,0,0,1,9.818,8.64c2.258,6.087-6.284,17.771-6.284,17.771s4.909,1.325,6.235,9.818-11.095,15.513-21.65,18.311a368.444,368.444,0,0,1-42.121,6.627C134.409,112.39,125.621,116.071,129.058,121.373Z" transform="translate(250.325 130.37)" fill="#fff"/><path d="M44.962,82.161a4.909,4.909,0,0,0-9.573,0L15.212,116.819c-2.651,4.467-.54,8.2,4.664,8.2H60.524c5.2,0,7.315-3.731,4.909-8.2Z" transform="translate(54.989 306.255)" fill="#ffce26"/><path d="M126.763,19.622A15.071,15.071,0,1,1,111.691,4.6,15.071,15.071,0,0,1,126.763,19.622Z" transform="translate(377.706 17.982)" fill="#ffce26"/><path d="M146.706,25.283A15.513,15.513,0,1,1,131.193,9.77,15.513,15.513,0,0,1,146.706,25.283Z" transform="translate(409.201 -116.109) rotate(15)" fill="#ffce26"/><path d="M218.2,52.693A15.562,15.562,0,1,1,202.642,37.18,15.562,15.562,0,0,1,218.2,52.693Z" transform="translate(651.073 59.632) rotate(15)" fill="#ffce26"/><path d="M116.3,19.622A15.022,15.022,0,1,1,101.282,4.6,15.022,15.022,0,0,1,116.3,19.622Z" transform="translate(337.207 17.982)" fill="#ccc"/><path d="M106,19.625A15.071,15.071,0,1,1,91.275,4.6,15.071,15.071,0,0,1,106,19.625Z" transform="translate(296.551 17.979)" fill="#fff"/><path d="M72.445,43.85s-9.426,1.718-10.7,9.818S74.949,79.638,78.68,81.5h2.6s-7.315-16.495-4.909-25.479Z" transform="translate(241.056 171.418)" fill="#1a1a1a"/><path d="M70.22,54.64a52.381,52.381,0,0,1,16.151,2.9A60.532,60.532,0,0,1,95.8,62.446,43.741,43.741,0,0,1,70.22,54.64Z" transform="translate(274.504 213.598)" fill="#1a1a1a"/><path d="M84.341,49.54s-7.855,2.5-7.167,7.167a202.4,202.4,0,0,1,16.4,12.077c2.6,2.749,4.467,4.615,4.467,4.615a31.91,31.91,0,0,0-13.7-23.859Z" transform="translate(301.521 193.661)" fill="#1a1a1a"/><path d="M182.865,39.158A15.808,15.808,0,1,1,167.058,23.35,15.808,15.808,0,0,1,182.865,39.158Z" transform="translate(529.772 -28.842) rotate(15)" fill="#1a1a1a"/><path d="M169.107,109.447l6.431-.393a32.941,32.941,0,0,0,1.375-9.818c0-5.891,1.522-25.773-5.793-38.832-6.137-10.948-19.882-19.637-38.734-21.944C145.1,43.958,158.6,52.6,155.852,63.693c-4.075,16.2-60.972,5.4-60.972,5.4L96.3,71.155c.344-.933,5.646,0,28.621,7.167s43.692,27.541,43.692,27.541Z" transform="translate(370.904 150.348)" fill="#fff"/><path d="M374.53,141.756c-.687,0-54-27.344-54-27.344a70.1,70.1,0,0,0-47.423-3.485l-39.863,13.549a66.814,66.814,0,0,1-49.092-5.2l-42.71-25.43a1.528,1.528,0,0,1,1.522-2.651l42.759,25.479a63.476,63.476,0,0,0,46.49,4.909l39.863-13.549a73.638,73.638,0,0,1,49.779,3.682l53.166,27.148a1.62,1.62,0,0,1,.687,2.062A1.571,1.571,0,0,1,374.53,141.756Z" transform="translate(549.92 355.692)" fill="#1a1a1a"/><path d="M193.275,135.522a32.106,32.106,0,1,1,32.057-32.106,32.106,32.106,0,0,1-32.057,32.106Zm0-61.119a29.013,29.013,0,1,0,29.013,29.013A29.013,29.013,0,0,0,193.275,74.4Z" transform="translate(629.849 278.765)" fill="#1a1a1a"/><path d="M181.506,175.481c-1.227-.638-37.064-52.087-37.064-52.087L108.7,174.843c-2.749-.589-18.8-84.34-18.8-84.34.442-1.325,22.926-24.006,22.926-24.006,2.405.295,31.566,51.154,31.566,51.154L173.847,66.2c2.406-.295,23.613,21.208,23.613,21.208.442,1.325-14.384,86.795-14.384,86.795C181.751,175.481,181.6,175.481,181.506,175.481ZM93.14,90.748l15.218,79.333,34.364-49.436L113.611,70.13Zm53.167,29.9,34.364,49.386L194.76,88.981,175.516,69.344Z" transform="translate(351.437 258.786)" fill="#1a1a1a"/><path d="M109.074,75.061a31.562,31.562,0,0,1-6.676-.687,1.473,1.473,0,0,1-1.129-1.816,1.522,1.522,0,0,1,1.816-1.129,23.662,23.662,0,0,0,16.1-2.013,11.929,11.929,0,0,0,4.909-8.738,1.522,1.522,0,0,1,1.718-1.325,1.473,1.473,0,0,1,1.276,1.718A14.728,14.728,0,0,1,121,71.919a20.963,20.963,0,0,1-11.929,3.142Z" transform="translate(395.689 231.96)" fill="#1a1a1a"/><path d="M150.185,319.035a124.4,124.4,0,0,1-34.9-5.3c-38.292-10.849-61.463-43.692-65.292-92.489-2.7-34.708,10.162-68.729,23.073-97.5,4.909-10.948,8.542-19.98,12.028-28.67a326.949,326.949,0,0,1,23.564-49.485,1.571,1.571,0,0,1,2.111-.54,1.62,1.62,0,0,1,.54,2.111A314.877,314.877,0,0,0,88.133,96.256c-3.486,8.689-7.217,17.722-12.126,28.719-12.715,28.621-25.43,62-22.779,96.024,3.731,47.423,26.117,79.283,63.083,89.789a114.778,114.778,0,0,0,78.547-3.78,1.522,1.522,0,0,1,1.964.884,1.571,1.571,0,0,1-.884,2.013,128.08,128.08,0,0,1-45.754,9.131Z" transform="translate(193.999 175.321)" fill="#1a1a1a"/><path d="M70.452,175.525a1.522,1.522,0,0,1-1.522-1.718,196.366,196.366,0,0,1,15.464-50.025l1.473-3.387L98.778,88.436A245.011,245.011,0,0,1,110.756,63.89l1.473-2.7a1.522,1.522,0,0,1,2.062-.638,1.473,1.473,0,0,1,.589,2.062l-1.424,2.7a249.725,249.725,0,0,0-11.831,24.2L88.96,121.524l-1.522,3.486A193.768,193.768,0,0,0,72.17,174.1a1.473,1.473,0,0,1-1.718,1.424Z" transform="translate(269.411 236.013)" fill="#1a1a1a"/><circle cx="6.677" cy="6.677" r="6.677" transform="translate(0.344 129.848)" fill="#1a1a1a"/><path d="M17.59,40.42a6.971,6.971,0,1,0-4.979-2.042A7.02,7.02,0,0,0,17.59,40.42Z" transform="translate(41.32 103.125)" fill="#1a1a1a"/><circle cx="6.48" cy="6.48" r="6.48" transform="translate(103.928 130.045)" fill="#1a1a1a"/><path d="M7.02,50.95A7.02,7.02,0,1,0,0,43.93a7.02,7.02,0,0,0,7.02,7.02Z" transform="translate(0 144.288)" fill="#1a1a1a"/><path d="M17.864,51.568A7.364,7.364,0,1,0,10.5,44.2a7.364,7.364,0,0,0,7.364,7.364Z" transform="translate(41.047 144.015)" fill="#1a1a1a"/><circle cx="6.824" cy="6.824" r="6.824" transform="translate(103.584 181.395)" fill="#1a1a1a"/><path d="M6.59,60.52A6.48,6.48,0,1,0,.11,54.04a6.48,6.48,0,0,0,6.48,6.48Z" transform="translate(0.43 185.921)" fill="#1a1a1a"/><path d="M17.434,61.138a6.824,6.824,0,1,0-6.824-6.824A6.824,6.824,0,0,0,17.434,61.138Z" transform="translate(41.477 185.648)" fill="#1a1a1a"/><path d="M27.572,60.334A6.382,6.382,0,1,0,21.19,54,6.382,6.382,0,0,0,27.572,60.334Z" transform="translate(82.836 185.96)" fill="#1a1a1a"/><path d="M809.851,144.044H24.822a1.522,1.522,0,1,1,0-3.044H809.851a1.522,1.522,0,1,1,0,3.044Z" transform="translate(91.084 551.196)" fill="#1a1a1a"/><path d="M97.99,53c1.227,0,2.013.344,2.406,4.909s-.884,5.744-2.013,5.695-2.16-1.571-2.111-4.909S96.37,53.245,97.99,53Z" transform="translate(376.337 207.187)" fill="#1a1a1a"/><path d="M104.4,87.31a17.82,17.82,0,0,1-13.058-5.891,17.477,17.477,0,0,1,14.188-28.964,18.41,18.41,0,0,1,5.351,1.227,1.473,1.473,0,0,1,.835,1.964,1.522,1.522,0,0,1-1.964.884,12.567,12.567,0,0,0-4.418-.982,14.138,14.138,0,0,0-10.457,3.535,14.433,14.433,0,0,0,8.64,25.184,14.728,14.728,0,0,0,7.511-1.62A1.548,1.548,0,0,1,112.45,85.4,17.672,17.672,0,0,1,104.4,87.31Z" transform="translate(340.128 204.934)" fill="#1a1a1a"/><path d="M91.935,73.972c-1.718-1.276-1.62-2.258-.933-2.749l9.131-7.069-10.211-7.56a1.527,1.527,0,1,1,1.816-2.455l11.831,8.787c0,2.406-10.7,10.7-10.7,10.7a1.669,1.669,0,0,1-.933.344Z" transform="translate(349.107 210.467)" fill="#1a1a1a"/><path d="M118.551,87.344a17.673,17.673,0,0,1-8.051-1.915,1.522,1.522,0,0,1-.638-2.062,1.571,1.571,0,0,1,2.062-.687,14.335,14.335,0,0,0,20.962-13.648,14.727,14.727,0,0,0-15.218-13.5,15.709,15.709,0,0,0-4.909,1.129,1.424,1.424,0,0,1-1.964-.785,1.522,1.522,0,0,1,.785-2.013,17.477,17.477,0,1,1,7.9,33.481Z" transform="translate(428.775 204.901)" fill="#1a1a1a"/><path d="M121.5,73.971c-.933-.344-11.684-8.64-11.684-8.64,0-2.406,11.929-11.193,11.929-11.193a1.522,1.522,0,0,1,2.111.295,1.62,1.62,0,0,1-.295,2.16l-10.26,7.56,9.131,7.069a1.522,1.522,0,0,1,.294,2.111,1.62,1.62,0,0,1-1.227.638Z" transform="translate(429.308 210.468)" fill="#1a1a1a"/><path d="M176.573,311.218c-19.244,0-40.01-9.818-53.707-43.152a1.473,1.473,0,0,1,.835-1.964,1.522,1.522,0,0,1,1.964.834c14.138,34.659,37.457,47.619,69.22,38.488,53.461-15.366,38.783-83.456,33.923-105.5-7.069-32.4-26.264-113.255-26.264-114.09a1.473,1.473,0,0,1,1.129-1.816,1.522,1.522,0,0,1,1.816,1.129c0,.785,19.342,81.542,26.411,114.139,4.909,22.975,20.177,92.931-36.083,109.082A69.416,69.416,0,0,1,176.573,311.218Z" transform="translate(479.835 328.303)" fill="#1a1a1a"/><path d="M140.641,134.969h-6.087a41.973,41.973,0,0,1-27.442-9.082c-6.726-5.793-11.144-15.022-13.6-28.277A402.089,402.089,0,0,1,91.7,52a1.522,1.522,0,1,1,3.044.049,389.586,389.586,0,0,0,1.816,44.968c2.258,12.568,6.382,21.257,12.568,26.559a39.274,39.274,0,0,0,25.43,8.346h6.087a39.274,39.274,0,0,0,25.43-8.346c6.186-5.3,10.309-13.991,12.568-26.559a293.616,293.616,0,0,0,1.571-38.341,1.473,1.473,0,0,1,1.473-1.522,1.375,1.375,0,0,1,1.571,1.473,304.378,304.378,0,0,1-1.571,38.979c-2.455,13.255-6.873,22.484-13.6,28.277a42.072,42.072,0,0,1-27.442,9.082Z" transform="translate(358.232 197.531)" fill="#1a1a1a"/><path d="M96,73.163a1.522,1.522,0,0,1-1.522-1.571V66.683A1.522,1.522,0,0,1,96,65.161a1.473,1.473,0,0,1,1.522,1.522v4.909A1.522,1.522,0,0,1,96,73.163Z" transform="translate(369.34 254.722)" fill="#1a1a1a"/><path d="M108.446,72.585a1.522,1.522,0,0,1-1.522-1.571V66.645a1.374,1.374,0,0,1,1.571-1.473,1.522,1.522,0,0,1,1.473,1.571v4.369A1.522,1.522,0,0,1,108.446,72.585Z" transform="translate(417.967 254.711)" fill="#1a1a1a"/><path d="M189.558,111.85a1.571,1.571,0,0,1-1.522-1.767A86.745,86.745,0,0,0,184.6,64.771c-7.56-21.453-39.273-26.117-58.91-22.631a38.783,38.783,0,0,0-23.564,14.728,22.239,22.239,0,0,0-8.247,4.173,1.527,1.527,0,1,1-2.16-2.16A18.7,18.7,0,0,1,99.769,54.9,41.924,41.924,0,0,1,125.051,39.1c20.962-3.682,54,1.522,62.4,24.546a89.544,89.544,0,0,1,3.535,46.785,1.473,1.473,0,0,1-1.424,1.424Z" transform="translate(356.786 148.631)" fill="#1a1a1a"/><path d="M94.652,76.7A65.735,65.735,0,0,1,89.743,48.67,1.522,1.522,0,0,1,91.264,47a1.473,1.473,0,0,1,1.522,1.522,106.823,106.823,0,0,0,3.387,26.215,1.571,1.571,0,0,1-1.08,1.915Z" transform="translate(350.563 183.731)" fill="#1a1a1a"/><path d="M75.788,165.619a1.522,1.522,0,0,1-1.522-1.669l2.847-27.344a1.473,1.473,0,0,1,1.669-1.375,1.522,1.522,0,0,1,1.375,1.669l-2.847,27.344A1.571,1.571,0,0,1,75.788,165.619Z" transform="translate(290.291 528.591)" fill="#1a1a1a"/><path d="M79.587,170.51a1.62,1.62,0,0,1-1.522-1.767l9.818-77.467a1.534,1.534,0,1,1,3.044.393l-9.818,77.467A1.522,1.522,0,0,1,79.587,170.51Z" transform="translate(305.146 351.583)" fill="#1a1a1a"/><path d="M144.564,312.493a1.522,1.522,0,0,1-1.522-1.375C132.733,200.76,124.927,135.075,120.018,99.385a1.511,1.511,0,1,1,2.995-.393c4.909,35.69,12.715,101.424,23.122,211.832a1.571,1.571,0,0,1-1.375,1.669Z" transform="translate(469.086 381.716)" fill="#1a1a1a"/><path d="M95.677,60.676c-1.325-.393-1.718-1.276-1.424-2.062C97,51.054,107.41,48.8,113.645,50.268a1.522,1.522,0,0,1,1.129,1.816,1.473,1.473,0,0,1-1.816,1.178c-4.909-1.129-13.795.785-15.857,6.382a1.473,1.473,0,0,1-1.424,1.031Z" transform="translate(368.094 194.848)" fill="#1a1a1a"/><path d="M122.23,60.647a16.593,16.593,0,0,0-17.28-7.413,1.522,1.522,0,0,1-1.816-1.178,1.571,1.571,0,0,1,1.129-1.816c6.235-1.375,16.691.785,19.637,8.346a1.522,1.522,0,0,1-.884,1.964Z" transform="translate(403.054 194.877)" fill="#1a1a1a"/><path d="M99.469,51.634a54,54,0,0,1-6.186-7.56,1.532,1.532,0,1,1,2.5-1.767l4.909,6.922a1.571,1.571,0,0,1-.344,2.16,1.522,1.522,0,0,1-.884.246Z" transform="translate(363.566 162.849)" fill="#1a1a1a"/><path d="M194.242,116.1c-29.455-34.364-58.91-40.746-81.591-42.612a1.522,1.522,0,0,1-1.375-1.669,1.473,1.473,0,0,1,1.669-1.375c23.171,1.915,53.51,8.542,82.474,43.152a1.522,1.522,0,0,1,0,2.16,1.325,1.325,0,0,1-1.178.344Z" transform="translate(434.97 275.314)" fill="#1a1a1a"/><path d="M62.045,127.159H21.4a6.48,6.48,0,0,1-6.136-10.6L35.633,82.191a6.627,6.627,0,0,1,12.175,0l20.275,34.364a7.266,7.266,0,0,1,.589,7.315,7.168,7.168,0,0,1-6.627,3.289ZM41.721,80.914a4.369,4.369,0,0,0-3.486,2.651L18.009,117.93a4.566,4.566,0,0,0-.589,4.271,4.467,4.467,0,0,0,3.976,1.62H62.045a3.486,3.486,0,0,0,3.387-5.891L45.206,83.565c-1.031-1.718-2.258-2.651-3.486-2.651Z" transform="translate(53.469 305.636)" fill="#1a1a1a"/><path d="M132.284,116.464a22.582,22.582,0,0,1-11.242-2.455,10.948,10.948,0,0,1-5.3-6.873c-2.5-10.26,10.211-17.28,10.751-17.575a1.522,1.522,0,0,1,2.062.638,1.473,1.473,0,0,1-.589,2.062s-11.193,6.186-9.278,14.138a7.9,7.9,0,0,0,3.927,4.909c4.909,2.946,14.286,2.749,26.019-.589a374.078,374.078,0,0,0,46-19.637,1.537,1.537,0,1,1,1.375,2.749,374.92,374.92,0,0,1-46.539,19.637,64.9,64.9,0,0,1-17.182,2.995Z" transform="translate(451.174 349.419)" fill="#1a1a1a"/><path d="M143.85,228.96a19.146,19.146,0,0,1-12.028-3.093c-8.837-7.462-4.222-14.728-4.173-14.728a1.522,1.522,0,0,1,2.111-.393,1.571,1.571,0,0,1,.442,2.111s-3.044,4.909,3.584,10.555,34.364.393,57.585-11.487a101.13,101.13,0,0,0,30.584-23.515,41.581,41.581,0,0,0,8.3-34.364,67.4,67.4,0,0,0-15.317-33.088l-2.209-2.553a23.663,23.663,0,0,1-7.806-14.335c-.245-2.7-.295-5.646-.393-8.738-.344-11.88-.687-25.331-8.837-27.344a13.009,13.009,0,0,0-13.059,3.093c-5.94,6.038-6.971,18.409-2.847,33.873,1.424,5.3,2.995,10.6,4.566,15.857l1.718,5.891a7.756,7.756,0,0,1,0,5.2,7.511,7.511,0,0,1-2.406,2.945A108.983,108.983,0,0,1,149.3,154.193c-17.084,5.94-27.148,12.42-29.946,19.244a10.457,10.457,0,0,0,.54,9.082,7.167,7.167,0,0,0,4.615,3.289c10.309,3.24,36.181-1.571,63.82-16.789a1.538,1.538,0,1,1,1.473,2.7c-25.331,13.942-53.216,21.06-66.274,16.986a10.162,10.162,0,0,1-6.431-4.909,13.7,13.7,0,0,1-.638-11.635c3.191-7.757,13.6-14.728,31.812-20.962a105.843,105.843,0,0,0,33.677-18.557,4.91,4.91,0,0,0,1.522-1.718,5.351,5.351,0,0,0-.295-3.191l-1.767-5.891c-1.571-5.3-3.142-10.6-4.566-15.955-4.418-16.544-3.093-29.946,3.584-36.77a16.2,16.2,0,0,1,16-3.927c10.358,2.553,10.8,17.231,11.144,30.192a60.1,60.1,0,0,0,.393,8.591,21.306,21.306,0,0,0,7.02,12.567c.786.835,1.522,1.669,2.307,2.6a70.5,70.5,0,0,1,15.955,34.364,44.821,44.821,0,0,1-8.935,37.015,104.223,104.223,0,0,1-31.517,24.2C177.036,222.873,157.1,228.96,143.85,228.96Z" transform="translate(451.341 252.141)" fill="#1a1a1a"/><path d="M132.524,63.364H83.432a1.522,1.522,0,1,1,0-3.044h49.092a1.522,1.522,0,1,1,0,3.044Z" transform="translate(320.202 235.803)" fill="#1a1a1a"/><path d="M450.369,187.875a1.522,1.522,0,0,1-1.522-1.522V43.986a40.845,40.845,0,0,0-40.8-40.943H66.028a40.844,40.844,0,0,0-40.8,40.8V110.26a1.571,1.571,0,0,1-3.093,0V43.839A44.183,44.183,0,0,1,66.028,0H408.052a43.888,43.888,0,0,1,43.839,43.839v142.71a1.522,1.522,0,0,1-1.522,1.326Z" transform="translate(86.55)" fill="#1a1a1a"/><path d="M141.482,96.919H66.028A44.183,44.183,0,0,1,22.14,53.031a1.571,1.571,0,0,1,3.093,0,40.845,40.845,0,0,0,40.8,40.8h75.454a1.522,1.522,0,0,1,0,3.044Z" transform="translate(86.55 202.247)" fill="#1a1a1a"/><path d="M318.248,252.241H147.212a1.522,1.522,0,0,1,0-3.044h170.84A35.2,35.2,0,0,0,353.4,213.851V86.212a1.522,1.522,0,0,1,3.044,0V213.851a38.243,38.243,0,0,1-38.194,38.39Z" transform="translate(569.53 331.07)" fill="#1a1a1a"/><path d="M465.98,114.776a1.522,1.522,0,0,1-1.522-1.522v-13.5a35.2,35.2,0,0,0-35.15-35.15H155.424a35.15,35.15,0,0,0-35.1,35.15v12.568a1.522,1.522,0,0,1-3.044,0V99.754A38.243,38.243,0,0,1,155.424,61.56H429.308A38.243,38.243,0,0,1,467.5,99.753v13.5a1.522,1.522,0,0,1-1.522,1.522Z" transform="translate(458.47 240.65)" fill="#1a1a1a"/><path d="M440.417,252.885H50.284A38.243,38.243,0,0,1,12.09,214.691V144.244A38.243,38.243,0,0,1,50.284,106.1H171.148a1.522,1.522,0,1,1,0,3.044H50.284a35.15,35.15,0,0,0-35.1,35.1v70.3a35.15,35.15,0,0,0,35.1,35.1H440.417a35.15,35.15,0,0,0,35.1-35.1v-70.3a35.15,35.15,0,0,0-35.1-35.1h-156.7a1.522,1.522,0,0,1,0-3.044h156.7a38.194,38.194,0,0,1,38.144,38.144v70.3a38.243,38.243,0,0,1-38.144,38.341Z" transform="translate(47.262 414.766)" fill="#1a1a1a"/><path d="M67.479,98.712c-1.816-1.964-9.818-24.988,5.449-36.868,8.444-6.627,18.7-6.333,29.455-6.038a87.285,87.285,0,0,0,28.67-2.6,231.623,231.623,0,0,0,24.2-9.818c16.642-7.413,31.026-13.795,39.274-8.3A11.193,11.193,0,0,1,197.867,48.1c-4.124,14.089-24.546,29.8-59.549,30.879a1.571,1.571,0,0,1-1.571-1.473,1.522,1.522,0,0,1,1.473-1.571c38.586-1.227,54-19.293,56.7-28.67a8.2,8.2,0,0,0-2.356-9.426c-6.627-4.516-20.962,1.767-36.083,8.493a215.064,215.064,0,0,1-24.546,9.818A88.661,88.661,0,0,1,102.482,58.9c-10.751-.295-20.03-.54-27.639,5.4-13.451,10.555-5.989,32.2-5.891,32.45a1.473,1.473,0,0,1-.933,1.915.884.884,0,0,1-.54.049Z" transform="translate(249.262 129.075)" fill="#1a1a1a"/><path d="M90.369,78.586a88.343,88.343,0,0,1-10.113-.393,1.522,1.522,0,0,1-1.424-1.62A1.473,1.473,0,0,1,80.5,75.15c30.879,2.258,58.076-6.726,62.985-21.11a10.9,10.9,0,0,0,0-9.818,11.536,11.536,0,0,0-8.2-4.173,1.522,1.522,0,0,1-1.62-1.915,1.571,1.571,0,0,1,1.62-1.424,14.728,14.728,0,0,1,10.555,5.5,13.844,13.844,0,0,1,.491,12.666C141.425,69.308,118.6,78.586,90.369,78.586Z" transform="translate(308.159 143.506)" fill="#1a1a1a"/><path d="M72.842,75.257a1.522,1.522,0,0,1,0-3.044c27-1.424,30.29-27.835,30.339-28.081a1.532,1.532,0,1,1,3.044.344c0,.295-3.682,29.455-33.235,30.781Z" transform="translate(278.804 167.208)" fill="#1a1a1a"/><path d="M142.09,141.337a11.194,11.194,0,0,1-3.584-.589c-9.131-3.044-14.727-17.329-16.936-23.319-1.669-4.909-8.738-7.511-12.96-9.131a102.745,102.745,0,0,0-13.058-3.535c-2.651-.589-5.3-1.129-7.953-1.866a28.228,28.228,0,0,1-18.7-15.415A50.712,50.712,0,0,1,64.328,62.25a1.571,1.571,0,0,1,1.62-1.424,1.522,1.522,0,0,1,1.424,1.62,47.521,47.521,0,0,0,4.271,23.711,25.037,25.037,0,0,0,16.74,13.795c2.6.687,5.2,1.276,7.806,1.865a96.414,96.414,0,0,1,13.5,3.633c4.909,1.767,12.666,4.909,14.728,11,1.473,4.369,6.971,18.7,14.973,21.4a8.935,8.935,0,0,0,8.3-1.522,14.384,14.384,0,0,0,6.137-11.586,34.364,34.364,0,0,0-11.979-25.773,84.142,84.142,0,0,0-13.206-9.131,4.124,4.124,0,0,1-2.553-5.744,9.818,9.818,0,0,1,6.48-5.842,25.184,25.184,0,0,1,6.284-.884,190.819,190.819,0,0,0,30.83-4.026,74.326,74.326,0,0,0,23.908-8.886A15.759,15.759,0,0,0,200.755,57a9.818,9.818,0,0,0-5.989-12.028,1.522,1.522,0,1,1,1.08-2.7,12.813,12.813,0,0,1,7.707,15.709,18.459,18.459,0,0,1-8.247,9.229,77.86,77.86,0,0,1-24.84,9.229,187.24,187.24,0,0,1-31.075,4.124,22.879,22.879,0,0,0-5.842.736,6.824,6.824,0,0,0-4.516,4.075c5.449,4.222,10.6,7.806,14.728,11.438a37.6,37.6,0,0,1,12.911,28.228,17.281,17.281,0,0,1-7.462,13.991,13.059,13.059,0,0,1-7.118,2.307Z" transform="translate(250.891 163.916)" fill="#1a1a1a"/><path d="M81.433,163.374H37.251A28.13,28.13,0,0,1,9.17,135.244V102.5A28.13,28.13,0,0,1,37.251,74.37H81.433a28.179,28.179,0,0,1,28.13,28.13v32.744a28.179,28.179,0,0,1-28.13,28.13ZM37.251,77.463A25.086,25.086,0,0,0,12.214,102.5v32.744A25.086,25.086,0,0,0,37.251,160.33H81.433a25.037,25.037,0,0,0,25.086-25.086V102.5A25.037,25.037,0,0,0,81.482,77.463Z" transform="translate(35.847 290.727)" fill="#1a1a1a"/><path d="M204.564,89.78H160.381a13.009,13.009,0,0,1-12.96-13.009V32.588A12.96,12.96,0,0,1,160.086,19.48h44.183a12.96,12.96,0,0,1,12.96,12.96V76.623A13.009,13.009,0,0,1,204.564,89.78ZM160.381,22.524a9.818,9.818,0,0,0-9.818,9.818V76.525a9.818,9.818,0,0,0,9.818,9.818h44.183a9.818,9.818,0,0,0,9.818-9.818V32.342a9.818,9.818,0,0,0-9.818-9.818Z" transform="translate(519.225 -47.33) rotate(15)" fill="#1a1a1a"/><path d="M276.227,67.038c-9.818-24.546-23.613-40.894-42.906-49.485C206.271,5.575,169.5,9.306,123.8,28.648a1.541,1.541,0,0,1-1.178-2.847c46.441-19.637,84.094-23.368,111.93-11.046C254.184,23.592,269.3,40.97,277.7,65.025a1.571,1.571,0,0,1-.982,1.964Z" transform="translate(433.945 -118.045) rotate(15)" fill="#1a1a1a"/><path d="M132.385,43.53A17.035,17.035,0,1,1,149.42,26.495,17.035,17.035,0,0,1,132.385,43.53Zm0-31.026a13.991,13.991,0,1,0,13.991,13.991A13.991,13.991,0,0,0,132.385,12.5Z" transform="translate(408.267 -117.613) rotate(15)" fill="#1a1a1a"/><path d="M168.222,57.308a17.084,17.084,0,1,1,16.986-17.035,17.084,17.084,0,0,1-16.986,17.035Zm0-31.026a13.991,13.991,0,1,0,13.991,13.991,13.991,13.991,0,0,0-13.991-13.991Z" transform="translate(529.192 -29.848) rotate(15)" fill="#1a1a1a"/><path d="M235.311,93.02A88.905,88.905,0,0,1,198.836,85.9c-19.637-8.837-34.757-26.264-43.152-50.368a1.529,1.529,0,1,1,2.9-.982c8.2,23.613,22.19,39.961,41.483,48.552,27.05,11.978,63.82,8.3,109.524-11.046a1.518,1.518,0,1,1,1.178,2.8C282.194,86.933,256.961,93.02,235.311,93.02Z" transform="translate(535.948 13.869) rotate(15)" fill="#1a1a1a"/><path d="M203.854,71.028a17.084,17.084,0,1,1,17.084-17.084,17.084,17.084,0,0,1-17.084,17.084Zm0-31.075a13.991,13.991,0,1,0,13.991,13.991,13.991,13.991,0,0,0-13.991-13.991Z" transform="translate(650.227 58.11) rotate(15)" fill="#1a1a1a"/><path d="M267.253,119.824H42.952a1.522,1.522,0,0,1,0-3.044h224.3a1.522,1.522,0,1,1,0,3.044Z" transform="translate(161.958 456.516)" fill="#1a1a1a"/><path d="M267.512,127.592H43.211a1.571,1.571,0,1,1,0-3.093h224.3a1.571,1.571,0,0,1,0,3.093Z" transform="translate(161.699 486.597)" fill="#1a1a1a"/><path d="M46.725,168.032A26.166,26.166,0,1,1,65.247,160.3,26.166,26.166,0,0,1,46.725,168.032Zm0-49.092a9.57,9.57,0,1,0,0-.147Z" transform="translate(80.178 452.294)" fill="#1a1a1a"/><path d="M408.452,17.474H28.382a1.522,1.522,0,0,1,0-3.044h380.07a1.522,1.522,0,0,1,0,3.044Z" transform="translate(105.001 56.41)" fill="#1a1a1a"/><path d="M113.078,37.425a16.593,16.593,0,1,1,16.348-16.4,16.593,16.593,0,0,1-16.348,16.4Zm0-30.093a13.5,13.5,0,1,0,13.5,13.5,13.549,13.549,0,0,0-13.5-13.3Z" transform="translate(376.221 16.576)" fill="#1a1a1a"/><path d="M116.3,19.622A15.022,15.022,0,1,1,101.282,4.6,15.022,15.022,0,0,1,116.3,19.622Z" transform="translate(337.207 17.982)" fill="#fff"/><path d="M102.572,37.426a16.593,16.593,0,1,1,16.544-16.593,16.593,16.593,0,0,1-16.544,16.593Zm0-30.093a13.4,13.4,0,1,1,0,.2Z" transform="translate(335.917 16.575)" fill="#1a1a1a"/><path d="M92.213,37.426a16.593,16.593,0,1,1,16.593-16.593A16.593,16.593,0,0,1,92.213,37.426Zm0-30.093a13.5,13.5,0,1,0,13.549,13.5,13.549,13.549,0,0,0-13.549-13.3Z" transform="translate(295.613 16.575)" fill="#1a1a1a"/><path d="M71.317,112.337c-1.718-1.424-1.522-2.356-.785-2.8A325.973,325.973,0,0,1,168.96,70.8a1.522,1.522,0,0,1,.54,2.995A322.487,322.487,0,0,0,72.151,112.14a1.62,1.62,0,0,1-.835.2Z" transform="translate(273.603 276.717)" fill="#1a1a1a"/><path d="M289.616,272.9H273.71a1.522,1.522,0,0,1,0-3.044h15.906a1.522,1.522,0,1,1,0,3.044Zm-31.812,0H241.948a1.522,1.522,0,0,1,0-3.044H257.8a1.522,1.522,0,1,1,0,3.044Zm-31.812,0H210.136a1.522,1.522,0,1,1,0-3.044h15.857a1.522,1.522,0,0,1,0,3.044Zm-31.762,0H178.325a1.522,1.522,0,0,1,0-3.044H194.23a1.522,1.522,0,1,1,0,3.044Zm-31.812,0H146.513a1.522,1.522,0,0,1,0-3.044h15.906a1.522,1.522,0,1,1,0,3.044Zm-31.812,0H114.7a1.522,1.522,0,1,1,0-3.044h15.906a1.522,1.522,0,1,1,0,3.044Zm-31.812,0H82.988a1.522,1.522,0,0,1,0-3.044H98.894a1.522,1.522,0,0,1,0,3.044Zm-26.8-4.909a1.522,1.522,0,0,1-1.522-1.522V250.419a1.571,1.571,0,0,1,3.093,0v15.906a1.522,1.522,0,0,1-1.571,1.522Zm0-31.812a1.522,1.522,0,0,1-1.522-1.522V218.607a1.571,1.571,0,0,1,3.093,0v15.906a1.522,1.522,0,0,1-1.571,1.522Zm0-31.812a1.522,1.522,0,0,1-1.522-1.522V186.8a1.571,1.571,0,0,1,3.093,0V202.7a1.522,1.522,0,0,1-1.571,1.522Zm0-31.812a1.522,1.522,0,0,1-1.522-1.522V154.984a1.571,1.571,0,0,1,3.093,0V170.89a1.522,1.522,0,0,1-1.571,1.522Zm293.472-26.117a1.522,1.522,0,0,1-1.522-1.522V128.867a1.522,1.522,0,1,1,3.044,0v15.906a1.522,1.522,0,0,1-1.522,1.522ZM71.991,140.748a1.522,1.522,0,0,1-1.522-1.522V123.173a1.571,1.571,0,0,1,3.093,0v15.906a1.522,1.522,0,0,1-1.571,1.669Zm293.472-26.117a1.522,1.522,0,0,1-1.522-1.522V97.056a1.522,1.522,0,1,1,3.044,0v15.906a1.522,1.522,0,0,1-1.522,1.522ZM71.991,108.838a1.522,1.522,0,0,1-1.522-1.571V91.361a1.571,1.571,0,0,1,3.093,0v15.906A1.571,1.571,0,0,1,71.991,108.838ZM365.463,82.672a1.522,1.522,0,0,1-1.522-1.522V65.244a1.522,1.522,0,1,1,3.044,0V81.15a1.522,1.522,0,0,1-1.522,1.522ZM71.991,76.928a1.522,1.522,0,0,1-1.522-1.571V59.6a1.571,1.571,0,1,1,3.093,0V75.455a1.571,1.571,0,0,1-1.571,1.473ZM365.463,50.762a1.522,1.522,0,0,1-1.522-1.522v-5.6h-7.217a1.522,1.522,0,0,1,0-3.044h8.738a1.522,1.522,0,0,1,1.522,1.522v7.217a1.522,1.522,0,0,1-1.522,1.522ZM71.991,45.215a1.522,1.522,0,0,1-1.522-1.522c0-2.406.687-3.093,1.522-3.093H86.375a1.522,1.522,0,0,1,0,3.044H73.562a1.522,1.522,0,0,1-1.571,1.571Zm268.827-1.571H324.962a1.522,1.522,0,0,1,0-3.044h15.857a1.522,1.522,0,1,1,0,3.044Zm-31.763,0H293.151a1.522,1.522,0,0,1,0-3.044h15.906a1.522,1.522,0,1,1,0,3.044Zm-31.812,0H261.339a1.522,1.522,0,0,1,0-3.044h15.906a1.522,1.522,0,1,1,0,3.044Zm-31.812,0H229.527a1.522,1.522,0,0,1,0-3.044h15.906a1.522,1.522,0,0,1,0,3.044Zm-31.812,0H197.716a1.522,1.522,0,0,1,0-3.044h15.906a1.522,1.522,0,1,1,0,3.044Zm-31.812,0H165.9a1.522,1.522,0,0,1,0-3.044H181.81a1.522,1.522,0,0,1,0,3.044Zm-31.812,0H134.093a1.522,1.522,0,0,1,0-3.044H150a1.522,1.522,0,1,1,0,3.044Zm-31.812,0H102.281a1.522,1.522,0,0,1,0-3.044h15.906a1.522,1.522,0,1,1,0,3.044Z" transform="translate(275.383 158.713)" fill="#1a1a1a"/><path d="M181.68,82.545A144.428,144.428,0,0,0,110.251,47.1c-1.62,4.566-7.757,20.668-16,28.375a1.528,1.528,0,1,1-2.111-2.209c8.935-8.346,15.562-28.13,15.611-28.326,2.013-1.031,41.581,3.731,74.963,34.953a1.522,1.522,0,0,1,0,2.16A1.374,1.374,0,0,1,181.68,82.545Z" transform="translate(358.332 175.188)" fill="#1a1a1a"/><path d="M112.231,94.822a18.066,18.066,0,0,1-13.157-6.038,4.909,4.909,0,0,1-1.08-4.664,41.926,41.926,0,0,1,3.142-5.891,55.965,55.965,0,0,0,9.229-26.117,1.375,1.375,0,0,1,1.62-1.375,1.571,1.571,0,0,1,1.424,1.669,58.91,58.91,0,0,1-9.818,27.2,42.606,42.606,0,0,0-2.847,5.351,13.7,13.7,0,0,0,12.028,6.578,1.424,1.424,0,0,1,1.62,1.424,1.522,1.522,0,0,1-1.424,1.62Z" transform="translate(382.321 198.257)" fill="#1a1a1a"/><path d="M102.251,193.942a1.522,1.522,0,0,1-1.571-1.522V81.031a1.571,1.571,0,0,1,3.093,0V192.764A1.522,1.522,0,0,1,102.251,193.942Z" transform="translate(393.578 311.705)" fill="#1a1a1a"/><path d="M84.371,88.044C66.06,74.642,57.91,60.209,62.721,50.98a14.286,14.286,0,0,1,11.586-7.462,1.473,1.473,0,0,1,1.718,1.276A1.571,1.571,0,0,1,74.8,46.562,11.34,11.34,0,0,0,65.274,52.4C61.248,60.111,69.25,73.317,84.911,85.3a1.522,1.522,0,0,1,.295,2.16,1.473,1.473,0,0,1-.835.589Z" transform="translate(239.881 170.032)" fill="#1a1a1a"/><path d="M103.873,69A98.184,98.184,0,0,1,71.521,57.809l-2.209-1.178a1.571,1.571,0,0,1-.589-2.111,1.522,1.522,0,0,1,2.062-.589L72.9,55.06a95.043,95.043,0,0,0,31.173,10.9,1.522,1.522,0,0,1,1.325,1.718A1.571,1.571,0,0,1,103.873,69Z" transform="translate(267.9 210.086)" fill="#1a1a1a"/><path d="M92.758,75.854a1.571,1.571,0,0,1-1.522-1.718c.638-6.087-3.78-14.04-12.518-22.288a1.527,1.527,0,1,1,2.16-2.16c9.426,8.935,14.188,17.771,13.4,24.84A1.473,1.473,0,0,1,92.758,75.854Z" transform="translate(305.966 192.483)" fill="#1a1a1a"/><path d="M105.557,76.188c-1.816-2.7-4.516-15.611,2.553-17.379a5.842,5.842,0,0,1,5.94,1.276,12.224,12.224,0,0,1,1.718,10.751,1.522,1.522,0,0,1-2.946-.687,9.818,9.818,0,0,0-.982-8.1,3.1,3.1,0,0,0-3.044-.491c-3.289.835-2.651,8.837-1.816,12.568a1.571,1.571,0,0,1-1.129,1.816Z" transform="translate(404.606 228.624)" fill="#1a1a1a"/><path d="M46.762,164.869a1.522,1.522,0,0,1-1.522-1.522V19.851a1.523,1.523,0,1,1,3.044,0v143.5a1.522,1.522,0,0,1-1.522,1.522Z" transform="translate(176.851 71.46)" fill="#1a1a1a"/><path d="M116.362,66.192,103.893,63.2c-.491-2.749,10.309-10.26,10.309-10.26a1.571,1.571,0,0,1,2.111.393,1.522,1.522,0,0,1-.393,2.111l-8,5.6,8.787,2.16a1.516,1.516,0,0,1-.344,2.995Z" transform="translate(406.074 205.974)" fill="#1a1a1a"/></g></svg>