<svg id="Calque_1" data-name="Calque 1" xmlns="http://www.w3.org/2000/svg" viewBox="0 0 408.73 392.24"><path d="M93,417.1c2.51-13.31,10.76-22.81,20.67-31.24,5.58-4.74,11-9.6,16.54-14.42a8.35,8.35,0,0,0,2.89-8.6c-1.78-8-3.95-16-5.22-24.13-1.17-7.43-2.43-15.11-1.77-22.51,1.32-14.56,11.06-25,26.24-28.38A173.6,173.6,0,0,1,182.74,284c9.75-.37,15.66-4,19.08-13.39a172.47,172.47,0,0,1,12.54-27.06c10.1-17.57,27.37-23.14,45.82-14.72a163.64,163.64,0,0,1,25.48,14.74c8.27,5.76,15.38,5.69,23.67.09a175.35,175.35,0,0,1,26-14.66c17.49-7.86,34.62-2.44,44.37,14.13a196.42,196.42,0,0,1,13.15,28.1c3.21,8.2,7.85,12.72,17.16,13a169.13,169.13,0,0,1,29.27,3.36c22.42,4.76,33.16,20.9,29.35,43.49-1.61,9.55-3.89,19-6.25,28.4-1.61,6.45,0,11.24,5.17,15.42,7,5.67,13.92,11.57,20.51,17.75S499.45,406,501.12,415c2.19,11.79-1.6,22-9.43,30.46A177.28,177.28,0,0,1,470,465.42c-7.6,5.85-9.58,12.15-7.06,21.39,2.85,10.45,5.32,21.27,5.9,32,1,18.6-9.36,31.64-27.58,35.56-10.08,2.17-20.52,2.67-30.8,3.93-2.24.27-4.48.6-6.72.85a9,9,0,0,0-7.67,5.57c-3.41,7.63-6.75,15.3-10.15,23-3.64,8.2-7.82,16.11-15,21.84-10.93,8.77-23.23,9.75-35.64,4.18a166.93,166.93,0,0,1-25.66-14.41c-8.51-5.82-15.86-6-24.43-.12a161.68,161.68,0,0,1-25.65,14.44c-18.06,8-35,2.43-44.83-14.65a162.51,162.51,0,0,1-12.35-26.72c-3.5-9.82-9.62-13.62-19.86-14.11a147.8,147.8,0,0,1-32.61-4.74c-17.5-4.87-26.8-19.84-24.31-37.95,1.59-11.54,4.44-22.92,6.92-34.33,1-4.77,0-8.57-3.71-11.76-5.06-4.32-9.94-8.84-15-13.13-10-8.39-18.19-17.88-20.78-31.17ZM350.42,583.77c1.69-3.52,3.18-6.45,4.51-9.45,3.68-8.24,7.05-16.64,11-24.75,6.87-14.15,18.39-22,34-23.89,10-1.2,20.1-2,30.13-3.23,5.91-.7,6.36-1.43,5.09-7.09-1.72-7.64-3.35-15.32-5.4-22.87-5.81-21.32.51-38.36,17.57-52,5.92-4.73,11.56-9.82,17.11-15,4.33-4,4.32-4.81-.1-8.85-7.45-6.82-15.25-13.26-22.68-20.11-11.85-10.92-15.89-24.51-12.78-40.2,1.94-9.76,4.28-19.45,6.27-29.21,1.25-6.1.61-6.85-5.59-7.44-9-.86-18-1.63-27-2.48-17.65-1.67-30.42-10.29-37.72-26.6-3.36-7.52-6.54-15.11-9.95-22.6-1.41-3.1-3.2-6-5-9.32-3.5,2-6.53,3.6-9.49,5.33-7.46,4.36-14.74,9-22.35,13.09-12.62,6.7-25.64,7.4-38.69,1.12-4.3-2.07-8.48-4.43-12.59-6.85-5.84-3.44-11.48-7.22-17.37-10.56-5.25-3-5.54-2.81-7.91,2.56-3,6.8-5.73,13.72-8.73,20.52-3.61,8.18-7.57,16.14-14.38,22.27-8.69,7.81-19.42,10-30.53,11.12-8.07.82-16.16,1.45-24.21,2.39-5,.58-5.35,1.22-4.23,6.15,1.61,7.12,3.56,14.17,5.14,21.3,2,9.23,3.86,18.47,1.55,28-2.72,11.24-10.28,19-18.53,26.26-5.58,4.93-11.38,9.63-16.8,14.72-4.84,4.55-4.81,5.38-.05,9.8,5.27,4.88,10.84,9.42,16.2,14.2,8.73,7.77,16.79,16,19.08,28.17,1.82,9.65-.09,19-2.27,28.39-1.53,6.6-3,13.21-4.48,19.81-.87,3.85.24,6,4.59,6.25,7.83.51,15.63,1.33,23.44,2.1C198.62,526,209.67,528,218.61,536c7,6.3,10.94,14.61,14.7,23,3.16,7,6.17,14.11,9.29,21.15,1.31,2.94,3,3.78,6.16,1.85,9.05-5.57,18.16-11.07,27.48-16.17,14-7.66,28.26-7.69,42.28,0,7.57,4.16,14.86,8.81,22.34,13.12C343.81,580.67,346.94,582,350.42,583.77Z" transform="translate(-93 -224.98)"/><path d="M273.52,449.88,311,405.08c12.45-14.89,24.85-29.84,37.39-44.66,9.17-10.85,25.07-8.49,29.56,4.33,2.33,6.66.43,12.48-4,17.74-9.1,10.78-18.09,21.63-27.14,32.44q-28.65,34.29-57.31,68.58c-5.21,6.27-11.43,9.61-19.59,7a18.54,18.54,0,0,1-7.06-4.26q-22.46-22.12-44.62-44.55c-5-5-6.71-11.15-4.16-18,2.45-6.57,7.39-10.27,14.36-11,5.69-.59,10.32,1.74,14.28,5.72,9.2,9.24,18.44,18.43,27.64,27.67C271.37,447.13,272.23,448.32,273.52,449.88Z" transform="translate(-93 -224.98)"/></svg>