<svg xmlns="http://www.w3.org/2000/svg" width="150.977" height="148.553" viewBox="0 0 150.977 148.553"><g transform="translate(0.001 -4.11)"><g transform="translate(2.955 5.311)"><path d="M88.772,181.063c-15.909-15.909-33.423-24.19-39.118-18.494l-.005.006a6.4,6.4,0,0,0-2.819,2.985L10.772,248.712a8.067,8.067,0,0,0,10.711,10.711l83.333-35.878a6.436,6.436,0,0,0,3.727-5.369C111.262,211.065,103.121,195.412,88.772,181.063Z" transform="translate(-10.023 -115.775)" fill="#f6e06e"/><path d="M81.8,347,20.546,373.371a5.927,5.927,0,0,1-6.465-.981l-3.31,7.633a8.067,8.067,0,0,0,10.711,10.711L104.017,355.2c-1.9-.762-21.9-8.347-22.213-8.2Z" transform="translate(-10.023 -247.087)" fill="#dda86a"/><ellipse cx="9.566" cy="28.681" rx="9.566" ry="28.681" transform="translate(35.474 63.272) rotate(-45)" fill="#dda86a"/><path d="M203.75,113.18a6.062,6.062,0,0,1-1.53-2.578l-2.739-9.271a9.865,9.865,0,0,1,2.436-9.789l4.979-4.979a9.865,9.865,0,0,1,9.79-2.436l9.973,2.815-3.364-12a6.091,6.091,0,1,1,11.683-3.452l2.739,9.271a9.865,9.865,0,0,1-2.436,9.789L230.3,95.528a9.865,9.865,0,0,1-9.789,2.436l-10.075-3.286L213.9,107.15a6.092,6.092,0,0,1-10.153,6.03Z" transform="translate(-143.322 -49.741)" fill="#c2b2eb"/><path d="M248.356,127.616l-1.3-1.3-8.923-2.518a9.9,9.9,0,0,0-8.652,1.464c.686,2.742,1.491,5.452,2.336,8.152l1.359,1.358,8.784,2.864a9.893,9.893,0,0,0,9-1.726C250.072,133.149,249.2,130.388,248.356,127.616Z" transform="translate(-164.768 -89.412)" fill="#9781dd"/><path d="M341.485,126.4a6.062,6.062,0,0,0,2.578,1.53l9.271,2.739a9.865,9.865,0,0,0,9.789-2.436l4.979-4.979a9.865,9.865,0,0,0,2.436-9.79l-2.815-9.973,12,3.364a6.091,6.091,0,0,0,3.452-11.683l-9.271-2.739a9.866,9.866,0,0,0-9.79,2.436l-4.979,4.979a9.865,9.865,0,0,0-2.436,9.79l3.286,10.075-12.472-3.465a6.092,6.092,0,0,0-6.029,10.153Z" transform="translate(-242.483 -67.293)" fill="#e8c2d8"/><path d="M410.208,135.933l-2.43-8.609-1.542-1.542c-2.9-.625-5.8-1.248-8.7-1.9a9.92,9.92,0,0,0-1.167,8.222l2.864,8.784.7.7a63.544,63.544,0,0,1,8.792,3.03A9.9,9.9,0,0,0,410.208,135.933Z" transform="translate(-282.152 -89.767)" fill="#d789b9"/><circle cx="4.946" cy="4.946" r="4.946" transform="translate(104.74 0.574)" fill="#e8a284"/><circle cx="4.946" cy="4.946" r="4.946" transform="translate(113.902 84.623) rotate(-31.72)" fill="#a1e8c3"/><circle cx="4.946" cy="4.946" r="4.946" transform="translate(85.148 82.185)" fill="#96b4eb"/><path d="M179.316,8.906l2.433,6.842a1.1,1.1,0,0,0,.571.642l6.079,2.739a1.213,1.213,0,0,1,0,2.142l-6.079,2.739a1.1,1.1,0,0,0-.571.642l-2.433,6.842a.987.987,0,0,1-1.9,0l-2.433-6.842a1.1,1.1,0,0,0-.571-.642l-6.079-2.739a1.213,1.213,0,0,1,0-2.142l6.079-2.739a1.1,1.1,0,0,0,.571-.642l2.433-6.842a.987.987,0,0,1,1.9,0Z" transform="translate(-121.195 -8.181)" fill="#e8c2d8"/><path d="M466.028,217.937l1.8,5.075a.814.814,0,0,0,.423.477l4.509,2.031a.9.9,0,0,1,0,1.589l-4.509,2.031a.815.815,0,0,0-.423.477l-1.8,5.075a.732.732,0,0,1-1.412,0l-1.8-5.075a.814.814,0,0,0-.423-.477l-4.509-2.031a.9.9,0,0,1,0-1.589l4.509-2.031a.814.814,0,0,0,.423-.477l1.8-5.075A.732.732,0,0,1,466.028,217.937Z" transform="translate(-325.479 -155.705)" fill="#c2b2eb"/><circle cx="2.292" cy="2.292" r="2.292" transform="translate(104.698 19.43)" fill="#a1e8c3"/><circle cx="4.231" cy="4.231" r="4.231" transform="translate(133.006 10.942) rotate(-85.931)" fill="#96b4eb"/></g><g transform="translate(-0.001 4.11)"><path d="M101.731,130.07c-3.635-7.688-10-16.289-17.932-24.218-2.447-2.447-4.958-4.744-7.486-6.858L74.4,92.124,79.228,93.7l.079.024A12.824,12.824,0,0,0,92.031,90.54l4.979-4.979a12.825,12.825,0,0,0,3.182-12.723l-2.739-9.272a9.053,9.053,0,0,0-17.37,5.108l1.934,6.9L77.141,74.2a12.822,12.822,0,0,0-12.705,3.187l-4.979,4.979a12.651,12.651,0,0,0-2.815,4.286c-8.714-3.412-13.391-1.811-15.854.427a9.428,9.428,0,0,0-3.713,4.12l-.03.068L1,174.386a11.035,11.035,0,0,0,14.622,14.627l83.3-35.862.075-.033a9.439,9.439,0,0,0,5.318-6.909c.024-.134.039-.268.057-.4,1.106-3.2.951-8.142-2.639-15.735Zm-8.683-3.447a3.167,3.167,0,1,1-2.24.926A3.161,3.161,0,0,1,93.048,126.623ZM87.885,63.131a3.134,3.134,0,0,1,3.887,2.114l2.739,9.271a6.905,6.905,0,0,1-1.69,6.856l-2.257,2.257-1.417-4.561s0-.006,0-.009l-3.364-12c0-.014-.007-.027-.012-.04A3.133,3.133,0,0,1,87.885,63.131Zm-12.4,16.753.035.01,8.424,2.378,1.719,5.534a7.006,7.006,0,0,1-4.636.246l-8.592-2.8L70.846,80.1a6.938,6.938,0,0,1,2.617-.51A7.111,7.111,0,0,1,75.481,79.884ZM63.646,86.553l2.284-2.284,1.45,4.712.007.019,3.3,11.861.013.047a3.129,3.129,0,1,1-6,1.773l-2.739-9.271A6.9,6.9,0,0,1,63.646,86.553ZM44.68,91.547a4.315,4.315,0,0,1,3.1-.938,21.153,21.153,0,0,1,8.035,2.107,13.075,13.075,0,0,0,.463,2.372l2.739,9.271a9.051,9.051,0,0,0,16.576,1.862q2.028,1.834,4.02,3.821a101.443,101.443,0,0,1,11.327,13.374,6.717,6.717,0,1,0,6.45,11.5c2.248,5.617,1.913,8.855.717,10.052-1.351,1.352-5.311,1.608-12.368-1.729-7.089-3.352-15.1-9.305-22.561-16.766S49.76,111,46.409,103.915C43.073,96.858,43.329,92.9,44.68,91.547Zm-31.436,92.04-.075.033A5.122,5.122,0,0,1,7.413,182.6h0a5.121,5.121,0,0,1-1.021-5.756l.03-.068L39.06,101.5a42.522,42.522,0,0,0,1.993,4.942c3.635,7.688,10,16.289,17.932,24.218s16.53,14.3,24.218,17.932a40.38,40.38,0,0,0,5.951,2.307Z" transform="translate(0.001 -41.459)" fill="#3c122c"/><path d="M376.935,85.246l-9.271-2.739a12.825,12.825,0,0,0-12.723,3.182l-4.979,4.979a12.826,12.826,0,0,0-3.182,12.723c.008.027.016.053.024.079l1.573,4.824-7.129-1.981a9.053,9.053,0,0,0-5.1,17.371l9.271,2.739a13.037,13.037,0,0,0,3.7.537,12.746,12.746,0,0,0,9.026-3.718l4.979-4.979a12.825,12.825,0,0,0,3.187-12.7l-1.376-4.876,6.9,1.934a9.053,9.053,0,0,0,5.109-17.371ZM358.229,98.759l2.378,8.424.01.035a7.012,7.012,0,0,1-.219,4.635l-5.147-1.584-2.8-8.592a7.007,7.007,0,0,1,.246-4.636Zm-11.137,21.983L337.821,118a3.088,3.088,0,0,1-1.323-.784,3.129,3.129,0,0,1,3.1-5.217l.046.013,11.86,3.3.02.007,4.711,1.45-2.284,2.284A6.907,6.907,0,0,1,347.092,120.743ZM377.37,94.814a3.129,3.129,0,0,1-3.887,2.114l-.04-.012-12-3.364-.008,0-4.562-1.417,2.257-2.257a6.905,6.905,0,0,1,6.856-1.69l9.271,2.739a3.133,3.133,0,0,1,2.114,3.887Z" transform="translate(-232.446 -59.011)" fill="#3c122c"/><path d="M365.923,17.55a6.72,6.72,0,1,0-4.754-1.966A6.7,6.7,0,0,0,365.923,17.55Zm-2.241-8.96a3.169,3.169,0,1,1,0,4.481,3.16,3.16,0,0,1,0-4.481Z" transform="translate(-253.282 -4.11)" fill="#3c122c"/><path d="M398.338,279.8a6.723,6.723,0,1,0,9.507,0A6.73,6.73,0,0,0,398.338,279.8Zm6.994,6.994a3.167,3.167,0,1,1,0-4.481A3.172,3.172,0,0,1,405.332,286.79Z" transform="translate(-279.491 -197.116)" fill="#3c122c"/><path d="M94.256,329.688a2.964,2.964,0,0,1-2.719-4.135l3.751-8.712a2.962,2.962,0,1,1,5.441,2.343L96.978,327.9A2.963,2.963,0,0,1,94.256,329.688Z" transform="translate(-64.373 -223.36)" fill="#fff"/><path d="M121.213,281.562a2.964,2.964,0,0,1-2.719-4.134l1.144-2.656a2.962,2.962,0,1,1,5.441,2.343l-1.144,2.656A2.963,2.963,0,0,1,121.213,281.562Z" transform="translate(-83.382 -193.696)" fill="#fff"/></g></g></svg>