<svg xmlns="http://www.w3.org/2000/svg" width="139.629" height="139.629" viewBox="0 0 139.629 139.629"><path d="M102.352,98.847,115.9,87.787l13.548,11.06,38.986-15.912V7.6H63.366V82.935Z" transform="translate(-46.085 -5.53)" fill="#80d8ff"/><path d="M127.879,220.1v17.38L88.893,253.393l-13.548-11.06L61.8,253.393,22.811,237.481V220.1L7.6,231.274v66.358H143.086V231.274Z" transform="translate(-5.53 -160.077)" fill="#f8bbd0"/><path d="M115.9,262.322l-13.548,11.06L63.366,257.47v7.189l38.986,15.912,13.548-11.06,13.548,11.06,38.986-15.912V257.47l-38.986,15.912Z" transform="translate(-46.085 -187.255)" fill="#40c4ff"/><g transform="translate(2.074 60.024)"><path d="M43.089,224.164l5.53-4.065V237.48l-5.53-2.256Z" transform="translate(-33.412 -220.099)" fill="#f48fb1"/><path d="M454.164,224.164v11.06l-5.53,2.256V220.1Z" transform="translate(-328.359 -220.099)" fill="#f48fb1"/><path d="M94.723,333.453l-5.83,2.379,47.419,38.709H14.378L61.8,335.832l-5.83-2.379L7.6,372.933v7.139H143.086v-7.139Z" transform="translate(-7.604 -302.54)" fill="#f48fb1"/></g><path d="M206.226,188.071H164.752v9.4c4.147,0,4.147,2.212,8.294,2.212s4.147-2.212,8.294-2.212,4.147,2.212,8.295,2.212,4.147-2.212,8.295-2.212,4.148,2.212,8.3,2.212,4.148-2.212,8.3-2.212v-9.4Z" transform="translate(-119.822 -136.782)" fill="#fdd844"/><path d="M197.929,222.543c-4.147,0-4.147,2.212-8.295,2.212s-4.147-2.212-8.295-2.212-4.147,2.212-8.294,2.212-4.147-2.212-8.294-2.212v12.719H214.52V222.543c-4.148,0-4.148,2.212-8.3,2.212S202.077,222.543,197.929,222.543Z" transform="translate(-119.821 -161.853)" fill="#f8bbd0"/><path d="M211.757,115.257c4.148,0,4.148,2.212,8.3,2.212s4.148-2.212,8.3-2.212v-8.295H195.168v8.295c4.147,0,4.147,2.212,8.295,2.212S207.609,115.257,211.757,115.257Z" transform="translate(-141.943 -77.792)" fill="#fdd844"/><path d="M228.347,137.378c-4.148,0-4.148,2.212-8.3,2.212s-4.148-2.212-8.3-2.212-4.147,2.212-8.294,2.212-4.147-2.212-8.295-2.212V151.2h33.179V137.378h0Z" transform="translate(-141.942 -99.913)" fill="#f8bbd0"/><path d="M124.422,58.975V0H15.207V58.975L0,70.148v69.482H139.629V70.148ZM52.251,93.917l-48.1,39.269v-58.9Zm17.563-8.983,61.921,50.548H7.893Zm17.564,8.983,48.1-19.634v58.9ZM19.354,70.368V4.147h100.92v66.22h4.147V64.121l8.922,6.555L83.72,90.931,69.815,79.58,55.909,90.931,6.285,70.676l8.922-6.555v6.247h4.147Z"/><rect width="4.147" height="4.147" transform="translate(76.036 127.187)"/><rect width="4.147" height="4.147" transform="translate(59.446 127.187)"/><rect width="4.147" height="4.147" transform="translate(67.741 127.187)"/><path d="M211.066,94.564h-8.295V72.444h-5.253V62.352H193.37V72.444h-7.189V62.352h-4.147V72.444h-7.189V62.352H170.7V72.444h-5.253V94.564H157.15V120.83h53.916V94.564ZM198.624,76.591v4.332a10.083,10.083,0,0,0-3.05,1.165,6.267,6.267,0,0,1-6.344,0,10.4,10.4,0,0,0-10.247,0,6.264,6.264,0,0,1-6.342,0,10.084,10.084,0,0,0-3.049-1.165V76.591ZM169.592,85.22a9.571,9.571,0,0,1,1.1.529,10.4,10.4,0,0,0,10.246,0,6.265,6.265,0,0,1,6.343,0,10.4,10.4,0,0,0,10.247,0,9.67,9.67,0,0,1,1.1-.529v9.344H169.592Zm37.327,13.491v5.438a10.083,10.083,0,0,0-3.05,1.165,6.267,6.267,0,0,1-6.344,0,10.4,10.4,0,0,0-10.247,0,6.265,6.265,0,0,1-6.343,0,10.4,10.4,0,0,0-10.246,0,6.264,6.264,0,0,1-6.342,0,10.081,10.081,0,0,0-3.049-1.165V98.711ZM161.3,116.683v-8.238a9.589,9.589,0,0,1,1.1.529,10.4,10.4,0,0,0,10.246,0,6.265,6.265,0,0,1,6.343,0,10.4,10.4,0,0,0,10.246,0,6.266,6.266,0,0,1,6.344,0,10.4,10.4,0,0,0,10.247,0,9.6,9.6,0,0,1,1.1-.529v8.238H161.3Z" transform="translate(-114.293 -45.348)"/><rect width="4.147" height="4.147" transform="translate(56.405 8.71)"/><rect width="4.147" height="4.147" transform="translate(67.741 8.71)"/><rect width="4.147" height="4.147" transform="translate(79.077 8.71)"/><g transform="translate(14.565 8.295)"><path d="M470.523,356.463h-4.147v-4.147h4.147Zm0-8.295h-4.147v-11.06h4.147Z" transform="translate(-353.754 -253.47)" fill="#fff"/><path d="M325.262,398.676l-3.213-2.623,2.623-3.213,3.213,2.623Zm-6.426-5.245-13.9-11.344,2.623-3.213,13.9,11.344Z" transform="translate(-236.344 -283.844)" fill="#fff"/><path d="M376.049,51.844H371.9V47.7h4.147Zm0-8.295H371.9V34.563h-6.221V30.416h10.369Zm-14.516-8.986h-4.147V30.416h4.147Z" transform="translate(-274.487 -30.416)" fill="#fff"/><path d="M90.325,131.109H86.178v-4.147h4.147Zm0-8.295H86.178V108.99h4.147Z" transform="translate(-77.241 -87.562)" fill="#fff"/><path d="M113.136,34.563h-11.06V30.416h11.06Zm-15.207,0H93.782V30.416h4.147Z" transform="translate(-82.771 -30.416)" fill="#fff"/><path d="M414.761,176.273h-4.147v-4.147h4.147Zm0-8.295h-4.147v-8.295h4.147Z" transform="translate(-313.199 -124.43)" fill="#fff"/><path d="M76.44,319.99l-15.352-6.266,1.567-3.84,15.352,6.266Zm-19.192-7.834-3.84-1.567,1.567-3.84,3.84,1.567Z" transform="translate(-53.408 -231.389)" fill="#fff"/></g></svg>