<svg id="tm" xmlns="http://www.w3.org/2000/svg" width="126.185" height="56.987" viewBox="0 0 126.185 56.987">
  <path id="Tracé_1" data-name="Tracé 1" d="M8.141,15.7V56.987H0V0H11.194l9.159,34.163V0h8V56.987H19.189Z"/>
  <path id="Tracé_2" data-name="Tracé 2" d="M24,0h9.013V56.987H24Z" transform="translate(10.89)"/>
  <path id="Tracé_3" data-name="Tracé 3" d="M48.846,46.52,55.678,0h8.286L55.242,56.987H41.722L33,0h9.013Z" transform="translate(14.974)"/>
  <path id="Tracé_4" data-name="Tracé 4" d="M57.1,0h9.013V56.987H57.1Z" transform="translate(25.909)"/>
  <path id="Tracé_5" data-name="Tracé 5" d="M67.8,0H82.047C91.06,0,95.421,4.943,95.421,14.1V42.885c0,9.159-4.361,14.1-13.374,14.1H67.8Zm8.868,8.141v40.7h5.088c2.907,0,4.507-1.454,4.507-5.524V13.665c0-4.07-1.744-5.524-4.507-5.524Z" transform="translate(30.764)"/>
</svg>
