<svg xmlns="http://www.w3.org/2000/svg" width="3350.912" height="1242.722" viewBox="0 0 3350.912 1242.722">
  <g id="tm" opacity="0.103">
    <path id="Tracé_1" data-name="Tracé 1" d="M177.532,342.383v900.34H0V0H244.106L443.829,745V0H618.191V1242.722H418.468Z" fill="#fff"/>
    <path id="Tracé_2" data-name="Tracé 2" d="M24,0H220.553V1242.722H24Z" transform="translate(736.85)" fill="#fff"/>
    <path id="Tracé_3" data-name="Tracé 3" d="M378.553,1014.467,527.553,0h180.7L518.042,1242.722H223.213L33,0H229.553Z" transform="translate(1013.169)" fill="#fff"/>
    <path id="Tracé_4" data-name="Tracé 4" d="M57.1,0H253.653V1242.722H57.1Z" transform="translate(1753.09)" fill="#fff"/>
    <path id="Tracé_5" data-name="Tracé 5" d="M67.8,0H378.481C575.034,0,670.14,107.787,670.14,307.51v627.7c0,199.723-95.106,307.51-291.659,307.51H67.8ZM261.183,177.532V1065.19H372.14c63.4,0,98.276-31.7,98.276-120.468V298c0-88.766-38.042-120.468-98.276-120.468Z" transform="translate(2081.603)" fill="#fff"/>
    <path id="Tracé_6" data-name="Tracé 6" d="M161.145,377.655V38.443H91.4V.4H272.1V38.443H205.527V377.655Z" transform="translate(2806.172 12.281)" fill="#fff"/>
    <path id="Tracé_7" data-name="Tracé 7" d="M237.59,377.655H196.377l-63.4-301.17v301.17H98.1V.4h57.064l63.4,301.17L278.8.4h60.234V377.655H297.824V73.315Z" transform="translate(3011.876 12.281)" fill="#fff"/>
  </g>
</svg>
