<svg xmlns="http://www.w3.org/2000/svg" width="125.621" height="125.621" viewBox="0 0 125.621 125.621">
  <path id="star" d="M90.481,32.852a4.812,4.812,0,0,0-4.151-3.315L60.147,27.159,49.793,2.926a4.821,4.821,0,0,0-8.868,0L30.572,27.159,4.384,29.537a4.827,4.827,0,0,0-2.737,8.437L21.439,55.332,15.6,81.04a4.814,4.814,0,0,0,7.171,5.209l22.586-13.5,22.578,13.5a4.821,4.821,0,0,0,7.175-5.209L69.275,55.332,89.067,37.978A4.824,4.824,0,0,0,90.481,32.852Zm0,0" transform="translate(61.474) rotate(45)" fill="#d7d7d7"/>
</svg>
