<?xml version="1.0" encoding="utf-8"?>
<!-- Generator: Adobe Illustrator 25.0.0, SVG Export Plug-In . SVG Version: 6.00 Build 0)  -->
<svg version="1.1" id="Logo" xmlns="http://www.w3.org/2000/svg" xmlns:xlink="http://www.w3.org/1999/xlink" x="0px" y="0px"
	 viewBox="0 0 105.6 39.2" style="enable-background:new 0 0 105.6 39.2;" xml:space="preserve">
<style type="text/css">
	.st0{fill:#FFFFFF;}
</style>
<g id="tm">
	<path class="st0" d="M5.6,10.8v28.4H0V0h7.7l6.3,23.5V0h5.5v39.2h-6.3L5.6,10.8z"/>
	<path class="st0" d="M24,0h6.2v39.2H24V0z"/>
	<path class="st0" d="M43.9,32l4.7-32h5.7l-6,39.2H39L33,0h6.2L43.9,32z"/>
	<path class="st0" d="M57.1,0h6.2v39.2h-6.2V0z"/>
	<path class="st0" d="M67.8,0h9.8c6.2,0,9.2,3.4,9.2,9.7v19.8c0,6.3-3,9.7-9.2,9.7h-9.8V0z M73.9,5.6v28h3.5c2,0,3.1-1,3.1-3.8V9.4
		c0-2.8-1.2-3.8-3.1-3.8L73.9,5.6z"/>
	<path class="st0" d="M93.6,12.3V1.6h-2.2V0.4h5.7v1.2H95v10.7H93.6z"/>
	<path class="st0" d="M102.5,12.3h-1.3l-2-9.5v9.5h-1.1V0.4h1.8l2,9.5l1.9-9.5h1.9v11.9h-1.3V2.7L102.5,12.3z"/>
</g>
</svg>
